# xmcd
#
# Track frame offsets:
#	150
#	18471
#	37196
#	51123
#	73524
#	88202
#	104901
#	120834
#	141625
#	153706
#	169291
#	184216
#	207355
#	220951
#	240391
#	252587
#	268244
#	293372
#
# Disc length: 3926 seconds
#
# Revision: 0
# Processed by: cddbd v1.5.2PL0 Copyright (c) Steve Scherf et al.
# Submitted via: audiograbber 1.83.01
#
DISCID=1f0f5412
DTITLE=Various Artist - CB5009-1
DYEAR=2004
DGENRE=Karaoke
TTITLE0=Brooks, Garth - Friends In Low Places
TTITLE1=Yearwood, Trisha - She's In Love With the Boy
TTITLE2=Jackson, Alan - Don't Rock the Jukebox
TTITLE3=McEntire, Reba - Fancy
TTITLE4=Strait, George - Love Without End, Amen
TTITLE5=Carpenter, Mary Chapin - I Feel Lucky
TTITLE6=Brooks and Dunn - Boot Scootin' Boogie
TTITLE7=Myles, Alannah - Black velvet
TTITLE8=Jackson, Alan - Chattahoochee	
TTITLE9=Carpenter, Mary Chapin - Down At the Twist and Shout
TTITLE10=McGraw, Tim - I Like It, I Love It
TTITLE11=Judds, The - Love Can Build A Bridge
TTITLE12=Keith, Toby - A Little Less Talk (And A Lot More Action)
TTITLE13=Tucker, Tanys - Two Sparrows In A Hurricane
TTITLE14=Brooks, Garth - Two of A Kind (Working On A Full house)
TTITLE15=McEntire, Reba - Take It Back
TTITLE16=Singletary, Daryle - Too Fuch Fun
TTITLE17=Data Track - Data Track
EXTD=
EXTT0=
EXTT1=
EXTT2=
EXTT3=
EXTT4=
EXTT5=
EXTT6=
EXTT7=
EXTT8=
EXTT9=
EXTT10=
EXTT11=
EXTT12=
EXTT13=
EXTT14=
EXTT15=
EXTT16=
EXTT17=
PLAYORDER=
